<svg xmlns="http://www.w3.org/2000/svg" width="500" height="1300" viewBox="0 0 500 1300"><rect width="100%" height="100%" fill="#DDDDDD"/><path fill="#999999" d="m120.57 642.055-1.53 2.12q-.25.33-.5.52-.25.18-.72.18-.44 0-.87-.27-.42-.27-1.01-.61-.58-.34-1.4-.61-.81-.27-2-.27-1.53 0-2.68.55-1.16.56-1.92 1.59t-1.14 2.5q-.37 1.47-.37 3.33 0 1.92.41 3.43.41 1.5 1.18 2.52.78 1.03 1.88 1.56 1.11.52 2.49.52 1.39 0 2.25-.34.86-.34 1.44-.75.59-.41 1.03-.75.43-.34.97-.34.71 0 1.06.54l1.67 2.11q-.97 1.13-2.09 1.9-1.13.76-2.34 1.22-1.21.46-2.49.64-1.28.19-2.55.19-2.24 0-4.21-.83-1.97-.84-3.45-2.43-1.48-1.6-2.34-3.92-.86-2.31-.86-5.27 0-2.66.76-4.93.77-2.26 2.25-3.92 1.48-1.66 3.66-2.6 2.19-.94 5.03-.94 2.71 0 4.74.87 2.03.87 3.65 2.49Zm14.53-3.36q2.67 0 4.87.87t3.76 2.47q1.56 1.6 2.41 3.9.85 2.3.85 5.15 0 2.86-.85 5.17-.85 2.3-2.41 3.92t-3.76 2.49q-2.2.87-4.87.87-2.71 0-4.92-.87t-3.77-2.49q-1.56-1.62-2.42-3.92-.86-2.31-.86-5.17 0-2.85.86-5.15.86-2.3 2.42-3.9t3.77-2.47q2.21-.87 4.92-.87Zm0 20.38q3 0 4.45-2.02 1.44-2.02 1.44-5.93 0-3.9-1.44-5.94-1.45-2.05-4.45-2.05-3.06 0-4.53 2.06-1.47 2.06-1.47 5.93 0 3.88 1.47 5.91 1.47 2.04 4.53 2.04Zm22.13 4.11h-5.8v-24.11h3.55q1.12 0 1.48 1.06l.37 1.78q.64-.7 1.33-1.29.69-.59 1.48-1.01.79-.42 1.69-.67.91-.25 1.99-.25 2.28 0 3.75 1.24 1.47 1.23 2.19 3.27.57-1.19 1.41-2.05.85-.86 1.86-1.4 1.01-.54 2.15-.8t2.29-.26q2 0 3.55.61 1.55.61 2.61 1.79 1.06 1.18 1.61 2.87.55 1.69.55 3.87v15.35h-5.8v-15.35q0-2.3-1.01-3.46-1.01-1.17-2.96-1.17-.9 0-1.66.31-.77.31-1.34.88-.58.58-.91 1.45-.32.87-.32 1.99v15.35h-5.83v-15.35q0-2.42-.98-3.52-.97-1.11-2.85-1.11-1.27 0-2.36.63-1.1.62-2.04 1.7v17.65Zm33.75-24.11h5.83v24.11h-5.83v-24.11Zm6.63-7.03q0 .75-.31 1.41-.31.66-.81 1.15-.51.5-1.19.79-.68.29-1.45.29-.76 0-1.43-.29-.67-.29-1.16-.79-.49-.49-.79-1.15-.29-.66-.29-1.41 0-.77.29-1.45.3-.69.79-1.18.49-.49 1.16-.79.67-.29 1.43-.29.77 0 1.45.29.68.3 1.19.79.5.49.81 1.18.31.68.31 1.45Zm10.15 8.09.4 1.9q.73-.73 1.54-1.35.81-.62 1.71-1.06.91-.43 1.94-.68 1.03-.25 2.26-.25 1.97 0 3.5.67t2.55 1.88q1.02 1.21 1.55 2.89.53 1.68.53 3.7v15.35h-5.81v-15.35q0-2.2-1.01-3.41-1.01-1.22-3.08-1.22-1.5 0-2.82.69-1.31.68-2.49 1.85v17.44h-5.8v-24.11h3.55q1.12 0 1.48 1.06Zm30.29 10.41q1.08 0 1.88-.3.8-.29 1.33-.81.53-.51.8-1.24t.27-1.6q0-1.79-1.07-2.83-1.07-1.05-3.21-1.05-2.14 0-3.21 1.05-1.07 1.04-1.07 2.83 0 .85.27 1.57.27.73.8 1.26t1.34.82q.81.3 1.87.3Zm6.56 13.72q0-.7-.43-1.15-.42-.45-1.15-.69-.73-.25-1.7-.37-.98-.12-2.07-.17-1.09-.06-2.26-.11-1.16-.05-2.26-.19-.97.54-1.57 1.27-.6.73-.6 1.69 0 .64.32 1.19.32.55 1.01.95.69.4 1.8.62 1.1.23 2.7.23 1.62 0 2.8-.25 1.17-.25 1.94-.68.76-.44 1.11-1.03.36-.6.36-1.31Zm-1.16-24.37h6.94v2.16q0 1.04-1.25 1.27l-2.16.4q.49 1.25.49 2.73 0 1.78-.71 3.23-.72 1.44-1.99 2.46-1.27 1.01-3 1.56-1.72.55-3.72.55-.71 0-1.36-.07-.66-.07-1.3-.19-1.12.68-1.12 1.53 0 .73.67 1.07.66.34 1.77.48 1.1.14 2.51.18 1.41.03 2.89.15 1.48.12 2.89.41 1.41.29 2.52.93 1.1.63 1.77 1.73.67 1.09.67 2.8 0 1.6-.78 3.11-.79 1.5-2.28 2.68-1.5 1.17-3.67 1.89-2.17.71-4.95.71-2.72 0-4.74-.53-2.02-.52-3.36-1.41-1.34-.88-2-2.03-.66-1.15-.66-2.39 0-1.7 1.02-2.84 1.03-1.14 2.81-1.82-.96-.49-1.53-1.31-.56-.83-.56-2.17 0-.54.2-1.11.2-.58.59-1.14.38-.57.97-1.07.59-.51 1.39-.91-1.83-.98-2.88-2.63-1.05-1.64-1.05-3.85 0-1.79.72-3.23.72-1.45 2-2.47 1.28-1.02 3.03-1.56 1.75-.54 3.82-.54 1.55 0 2.91.31 1.37.32 2.49.93Zm38.05 1.79-1.32 2.09q-.23.37-.49.53-.26.15-.66.15-.42 0-.9-.23-.48-.24-1.12-.53-.63-.3-1.44-.53-.81-.24-1.92-.24-1.71 0-2.69.73-.97.73-.97 1.9 0 .78.5 1.31.51.53 1.34.93.83.4 1.89.71 1.06.32 2.15.7 1.09.37 2.15.86 1.06.48 1.89 1.22.84.74 1.34 1.77.51 1.04.51 2.49 0 1.74-.62 3.21-.63 1.47-1.85 2.54-1.22 1.07-3.02 1.67-1.8.6-4.15.6-1.24 0-2.43-.23-1.19-.22-2.28-.62-1.09-.4-2.02-.94-.93-.54-1.63-1.17l1.34-2.21q.26-.4.61-.62.35-.21.89-.21t1.02.31q.49.3 1.12.66.63.35 1.49.65.86.31 2.18.31 1.03 0 1.77-.25.74-.24 1.22-.64t.71-.93q.22-.53.22-1.09 0-.85-.5-1.39-.51-.54-1.34-.94-.84-.4-1.91-.72-1.07-.31-2.18-.69-1.12-.38-2.19-.88-1.07-.51-1.9-1.28-.84-.78-1.34-1.91-.51-1.12-.51-2.72 0-1.48.59-2.82.59-1.34 1.73-2.34 1.14-1 2.84-1.6 1.7-.6 3.94-.6 2.49 0 4.53.83 2.05.82 3.41 2.16Zm15.3-2.99q2.68 0 4.88.87 2.19.87 3.76 2.47 1.56 1.6 2.4 3.9.85 2.3.85 5.15 0 2.86-.85 5.17-.84 2.3-2.4 3.92-1.57 1.62-3.76 2.49-2.2.87-4.88.87-2.7 0-4.91-.87t-3.77-2.49q-1.57-1.62-2.42-3.92-.86-2.31-.86-5.17 0-2.85.86-5.15.85-2.3 2.42-3.9 1.56-1.6 3.77-2.47 2.21-.87 4.91-.87Zm0 20.38q3.01 0 4.45-2.02 1.45-2.02 1.45-5.93 0-3.9-1.45-5.94-1.44-2.05-4.45-2.05-3.06 0-4.52 2.06-1.47 2.06-1.47 5.93 0 3.88 1.47 5.91 1.46 2.04 4.52 2.04Zm27-20.38q2.68 0 4.88.87 2.19.87 3.76 2.47 1.56 1.6 2.41 3.9.84 2.3.84 5.15 0 2.86-.84 5.17-.85 2.3-2.41 3.92-1.57 1.62-3.76 2.49-2.2.87-4.88.87-2.7 0-4.91-.87t-3.77-2.49q-1.57-1.62-2.42-3.92-.86-2.31-.86-5.17 0-2.85.86-5.15.85-2.3 2.42-3.9 1.56-1.6 3.77-2.47 2.21-.87 4.91-.87Zm0 20.38q3.01 0 4.45-2.02 1.45-2.02 1.45-5.93 0-3.9-1.45-5.94-1.44-2.05-4.45-2.05-3.05 0-4.52 2.06-1.47 2.06-1.47 5.93 0 3.88 1.47 5.91 1.47 2.04 4.52 2.04Zm21.36-18.94.4 1.9q.73-.73 1.54-1.35.81-.62 1.72-1.06.9-.43 1.93-.68 1.04-.25 2.26-.25 1.97 0 3.5.67t2.55 1.88q1.02 1.21 1.55 2.89.53 1.68.53 3.7v15.35h-5.8v-15.35q0-2.2-1.01-3.41-1.01-1.22-3.08-1.22-1.51 0-2.82.69-1.32.68-2.49 1.85v17.44h-5.81v-24.11h3.55q1.13 0 1.48 1.06Zm48.25 18.7h6.11v4.35h-18.8v-4.35h6.88v-19.81q0-1.17.07-2.42l-4.88 4.09q-.43.33-.84.41-.41.08-.77.01-.37-.07-.65-.24-.28-.18-.42-.39l-1.84-2.52 10.37-8.81h4.77v29.68Z"/></svg>